<mxfile host="app.diagrams.net" modified="2023-07-18T12:56:33.349Z" agent="Mozilla/5.0 (Windows NT 10.0; Win64; x64) AppleWebKit/537.36 (KHTML, like Gecko) Chrome/114.0.0.0 Safari/537.36" version="21.6.1" etag="vHKo0STl8vgAXwl_4n0A" type="github">
  <diagram name="第 1 页" id="leeVvoVLu2mguTjD2Oc8">
    <mxGraphModel>
      <root>
        <mxCell id="0" />
        <mxCell id="1" parent="0" />
      </root>
    </mxGraphModel>
  </diagram>
</mxfile>
